<mxfile host="app.diagrams.net" modified="2022-10-20T17:28:42.916Z" agent="5.0 (Macintosh; Intel Mac OS X 10_15_7) AppleWebKit/537.36 (KHTML, like Gecko) Chrome/106.0.0.0 Safari/537.36" etag="KfyNLRy4Cw5HHb2Ncl5-" version="20.4.2" type="github">
  <diagram id="prtHgNgQTEPvFCAcTncT" name="Page-1">
    <mxGraphModel dx="946" dy="509" grid="1" gridSize="10" guides="1" tooltips="1" connect="1" arrows="1" fold="1" page="1" pageScale="1" pageWidth="827" pageHeight="1169" math="0" shadow="0">
      <root>
        <mxCell id="0" />
        <mxCell id="1" parent="0" />
        <mxCell id="dNxyNK7c78bLwvsdeMH5-11" value="Orgchart" style="swimlane;html=1;startSize=20;horizontal=1;containerType=tree;glass=0;" parent="1" vertex="1">
          <mxGeometry x="70" y="50" width="710" height="290" as="geometry" />
        </mxCell>
        <mxCell id="xooGac2qeVY6evIs5eIs-1" value="" style="ellipse;whiteSpace=wrap;html=1;" vertex="1" parent="dNxyNK7c78bLwvsdeMH5-11">
          <mxGeometry x="70" y="40" width="230" height="220" as="geometry" />
        </mxCell>
        <mxCell id="xooGac2qeVY6evIs5eIs-2" value="" style="ellipse;whiteSpace=wrap;html=1;" vertex="1" parent="dNxyNK7c78bLwvsdeMH5-11">
          <mxGeometry x="90" y="60" width="190" height="180" as="geometry" />
        </mxCell>
        <mxCell id="xooGac2qeVY6evIs5eIs-3" value="pod" style="whiteSpace=wrap;html=1;aspect=fixed;" vertex="1" parent="dNxyNK7c78bLwvsdeMH5-11">
          <mxGeometry x="120" y="100" width="50" height="50" as="geometry" />
        </mxCell>
        <mxCell id="xooGac2qeVY6evIs5eIs-4" value="svc" style="whiteSpace=wrap;html=1;aspect=fixed;" vertex="1" parent="dNxyNK7c78bLwvsdeMH5-11">
          <mxGeometry x="190" y="130" width="50" height="50" as="geometry" />
        </mxCell>
        <mxCell id="xooGac2qeVY6evIs5eIs-5" value="" style="endArrow=none;html=1;rounded=0;" edge="1" parent="dNxyNK7c78bLwvsdeMH5-11" target="xooGac2qeVY6evIs5eIs-4">
          <mxGeometry width="50" height="50" relative="1" as="geometry">
            <mxPoint x="170" y="130" as="sourcePoint" />
            <mxPoint x="220" y="80" as="targetPoint" />
          </mxGeometry>
        </mxCell>
        <mxCell id="xooGac2qeVY6evIs5eIs-6" value="" style="endArrow=classic;html=1;rounded=0;" edge="1" parent="dNxyNK7c78bLwvsdeMH5-11">
          <mxGeometry width="50" height="50" relative="1" as="geometry">
            <mxPoint x="240" y="160" as="sourcePoint" />
            <mxPoint x="460" y="120" as="targetPoint" />
          </mxGeometry>
        </mxCell>
        <mxCell id="xooGac2qeVY6evIs5eIs-7" value="port :8200" style="text;html=1;align=center;verticalAlign=middle;resizable=0;points=[];autosize=1;strokeColor=none;fillColor=none;" vertex="1" parent="dNxyNK7c78bLwvsdeMH5-11">
          <mxGeometry x="304" y="110" width="80" height="30" as="geometry" />
        </mxCell>
        <mxCell id="xooGac2qeVY6evIs5eIs-8" value="localhost:8200" style="whiteSpace=wrap;html=1;aspect=fixed;" vertex="1" parent="dNxyNK7c78bLwvsdeMH5-11">
          <mxGeometry x="470" y="85" width="130" height="130" as="geometry" />
        </mxCell>
        <mxCell id="xooGac2qeVY6evIs5eIs-9" value="" style="endArrow=classic;html=1;rounded=0;exitX=0.9;exitY=0.794;exitDx=0;exitDy=0;exitPerimeter=0;" edge="1" parent="1" source="xooGac2qeVY6evIs5eIs-2">
          <mxGeometry width="50" height="50" relative="1" as="geometry">
            <mxPoint x="390" y="300" as="sourcePoint" />
            <mxPoint x="390" y="300" as="targetPoint" />
          </mxGeometry>
        </mxCell>
        <mxCell id="xooGac2qeVY6evIs5eIs-10" value="node&amp;nbsp;" style="text;html=1;align=center;verticalAlign=middle;resizable=0;points=[];autosize=1;strokeColor=none;fillColor=none;" vertex="1" parent="1">
          <mxGeometry x="375" y="295" width="50" height="30" as="geometry" />
        </mxCell>
        <mxCell id="xooGac2qeVY6evIs5eIs-12" value="" style="endArrow=classic;html=1;rounded=0;exitX=0.957;exitY=0.718;exitDx=0;exitDy=0;exitPerimeter=0;" edge="1" parent="1" source="xooGac2qeVY6evIs5eIs-1">
          <mxGeometry width="50" height="50" relative="1" as="geometry">
            <mxPoint x="390" y="300" as="sourcePoint" />
            <mxPoint x="460" y="290" as="targetPoint" />
            <Array as="points">
              <mxPoint x="410" y="280" />
            </Array>
          </mxGeometry>
        </mxCell>
        <mxCell id="xooGac2qeVY6evIs5eIs-13" value="minikube" style="text;html=1;align=center;verticalAlign=middle;resizable=0;points=[];autosize=1;strokeColor=none;fillColor=none;" vertex="1" parent="1">
          <mxGeometry x="455" y="275" width="70" height="30" as="geometry" />
        </mxCell>
      </root>
    </mxGraphModel>
  </diagram>
</mxfile>
